<?xml version="1.0" encoding="UTF-8"?>
<svg width="12px" height="12px" viewBox="0 0 12 12" version="1.1" xmlns="http://www.w3.org/2000/svg" xmlns:xlink="http://www.w3.org/1999/xlink">
    <!-- Generator: Sketch 42 (36781) - http://www.bohemiancoding.com/sketch -->
    <title>EditIcon</title>
    <desc>Created with Sketch.</desc>
    <defs></defs>
    <g id="ButterflyExercise" stroke="none" stroke-width="1" fill="none" fill-rule="evenodd">
        <g id="Page1" transform="translate(-62.000000, -90.000000)" fill="#2CE6CE">
            <path d="M69.9394366,97.9394366 L69.2711761,95.921905 L65.4161159,92.0668448 L64.0668448,93.4161159 L67.921905,97.2711761 L69.9394366,97.9394366 Z M62.2795669,90.2795669 C61.906811,90.6523227 61.906811,91.2560821 62.2795669,91.628838 L63.2725824,92.6218535 L64.6218535,91.2725824 L63.628838,90.2795669 C63.2560821,89.906811 62.6523227,89.906811 62.2795669,90.2795669 L62.2795669,90.2795669 Z M73.2499883,92.2498477 L67.9331552,92.2498477 L68.6831669,92.9998594 L73.2499883,92.9998594 L73.2499883,101.249988 L64.9998594,101.249988 L64.9998594,96.6831669 L64.2498477,95.9331552 L64.2498477,101.249988 C64.2498477,101.663995 64.5858529,102 64.9998594,102 L73.2499883,102 C73.6639947,102 74,101.663995 74,101.249988 L74,92.9998594 C74,92.5858529 73.6639947,92.2498477 73.2499883,92.2498477 L73.2499883,92.2498477 Z" id="EditIcon"></path>
        </g>
    </g>
</svg>