<?xml version="1.0" encoding="UTF-8"?>
<svg width="16px" height="16px" viewBox="0 0 16 16" version="1.1" xmlns="http://www.w3.org/2000/svg" xmlns:xlink="http://www.w3.org/1999/xlink">
    <!-- Generator: Sketch 42 (36781) - http://www.bohemiancoding.com/sketch -->
    <title>InfoIcon</title>
    <desc>Created with Sketch.</desc>
    <defs></defs>
    <g id="ButterflyExercise" stroke="none" stroke-width="1" fill="none" fill-rule="evenodd">
        <g id="Page1" transform="translate(-10.000000, -511.000000)" fill="#1B828E">
            <g id="Sider">
                <path d="M18,511 C13.582,511 10,514.582 10,519 C10,523.418 13.582,527 18,527 C22.418,527 26,523.418 26,519 C26,514.582 22.418,511 18,511 L18,511 Z M18,526 C14.14,526 11,522.86 11,519 C11,515.14 14.14,512 18,512 C21.86,512 25,515.14 25,519 C25,522.86 21.86,526 18,526 L18,526 Z M18,517 C17.448,517 17,517.448 17,518 L17,523 C17,523.552 17.448,524 18,524 C18.552,524 19,523.552 19,523 L19,518 C19,517.448 18.552,517 18,517 L18,517 Z M17,515.016 C17,515.373266 17.1905989,515.703393 17.5,515.882025 C17.8094011,516.060658 18.1905989,516.060658 18.5,515.882025 C18.8094011,515.703393 19,515.373266 19,515.016 C19,514.658734 18.8094011,514.328607 18.5,514.149975 C18.1905989,513.971342 17.8094011,513.971342 17.5,514.149975 C17.1905989,514.328607 17,514.658734 17,515.016 L17,515.016 Z" id="InfoIcon"></path>
            </g>
        </g>
    </g>
</svg>